# xmcd
#
# Track frame offsets: 
#        150
#        17120
#        34045
#        48680
#        63330
#        75775
#        89520
#        101232
#        120060
#        134780
#        149642
#        166695
#        177012
#        195370
#        212120
#        230955
#        242455
#        253835
#
# Disc length: 3541 seconds
#
# Revision: 0
# Processed by: cddbd v1.5.2PL0 Copyright (c) Steve Scherf et al.
# Submitted via: ExactAudioCopyFreeDBPlugin 1.0
#
DISCID=f70dd312
DTITLE=Jim Brickman - Ballads
DYEAR=2001
DGENRE=Blues
TTITLE0=Your Love
TTITLE1=The Gift
TTITLE2=Valentine
TTITLE3=Starbright
TTITLE4=What Child Is This?
TTITLE5=Partners In Crime
TTITLE6=Sweet Dreams
TTITLE7=That's What I'm Here For
TTITLE8=Angels
TTITLE9=Hope Is Born Again
TTITLE10=You Never Know
TTITLE11=Picture This
TTITLE12=Secret Love
TTITLE13=American Dream
TTITLE14=After All These Years
TTITLE15=Hero's Dream
TTITLE16=Angel Eyes
TTITLE17=Edge Water
EXTD=
EXTT0=
EXTT1=
EXTT2=
EXTT3=
EXTT4=
EXTT5=
EXTT6=
EXTT7=
EXTT8=
EXTT9=
EXTT10=
EXTT11=
EXTT12=
EXTT13=
EXTT14=
EXTT15=
EXTT16=
EXTT17=
PLAYORDER=
